<?xml version="1.0" encoding="utf-8"?>
<!-- Svg Vector Icons : http://www.onlinewebfonts.com/icon -->
<!DOCTYPE svg PUBLIC "-//W3C//DTD SVG 1.1//EN" "http://www.w3.org/Graphics/SVG/1.1/DTD/svg11.dtd">
<svg version="1.1" xmlns="http://www.w3.org/2000/svg" xmlns:xlink="http://www.w3.org/1999/xlink" x="0px" y="0px" viewBox="0 0 1000 1000" enable-background="new 0 0 1000 1000" xml:space="preserve">
<metadata> Svg Vector Icons : http://www.onlinewebfonts.com/icon </metadata>
<g><path d="M337.2,556.2c0.8-3.7,5.8-20.6,14.8-54l0.9-3.3c1.3-4.7,4.2-11.4,10.9-16.8c7.2-5.8,20.8-7,25.5-7c-4.6,0-18.3,0.9-25.5,6.7c-6.7,5.5-9.7,11.7-10.9,16.5l-0.9,2.9C342.9,534.6,338,552.5,337.2,556.2c-1.4,6.6-3.4,18.3-6.5,18.3C333.8,574.5,335.8,562.9,337.2,556.2z"/><path d="M586.6,498.9l0.3,1c12.3,45.5,14.9,54.1,15.4,56.4c1.4,6.6,3.4,18.3,6.5,18.3c-3.1,0-5.1-11.7-6.5-18.3c-0.5-2.3-3.1-11.9-15.4-57.3l-0.3-0.5c-1.3-4.7-4.2-11-10.9-16.5c-7.2-5.9-21.2-6.7-25.5-6.7c4.3,0,18.2,1.1,25.5,7C582.4,487.6,585.3,494.2,586.6,498.9z"/><path d="M478.8,129.3l-16.2,41.6h31.9L478.8,129.3z"/><path d="M981.2,596.7c-2.2-38.7-19.1-67.3-50.8-85.5c-0.7-0.4-1.3-0.8-2.1-1.3c-7.8-4.3-16-8.1-25.4-11.2c-9.7-3.1-23.7-13.1-34.3-63.3c-2.8-13.3-22.5-86.7-38.5-145.9l-0.7-2.5c-4.8-17.7-15.8-36.5-41.3-57.2c-32.7-26.5-84.1-20.8-89.9-20.8h-25.8c-0.8-30.6-2-58-2.6-68.4c-1.5-26.7-21.5-54.1-47.4-54.1H373.8c-25.9,0-45.9,27.4-47.4,54.1c-0.6,10.4-1.8,37.8-2.6,68.4h-22.1c-5.7,0-57.2-5.7-89.9,20.8c-25.5,20.7-36.5,42.8-41.3,60.5l-2.2,6.6c-14.5,53.7-34.1,125.9-36.9,139.3c-10.6,50.2-25,59.1-34.4,62.9c-8.6,3.5-26.9,11.1-38.8,20.9c-9.2,7.6-17.8,15.1-23.8,24.7c-0.5,0.8-4.4,6.6-5.5,8.9c-1,2.1-2.1,4.2-3,6.4c-0.8,2.1-1.6,4.2-2.3,6.4c-0.9,2.9-1.8,5.9-2.5,9c-0.4,1.8-0.9,3.6-1.2,5.4c-0.9,5.1-1.6,10.3-1.9,15.9c-0.8,14.3-1.9,36.4-3.1,60.9c-0.1,2.5-0.3,5.2-0.4,7.8L10,743.9c0,0.6,0,2.1,0.1,4c0,0.4,0,0.9-0.1,1.3c-0.1,4-0.1,33.4,24.2,58c12.9,13.1,30.6,14.3,51,14.4v61.3c0,16.9,13.7,30.6,30.6,30.6h61.3c16.9,0,30.6-13.7,30.6-30.6v-61.3h581.9v61.3c0,16.9,13.7,30.6,30.6,30.6h61.3c16.9,0,30.6-13.7,30.6-30.6v-61.3c21.7,0,40.3-0.7,53.8-14.4c24.3-24.6,24.2-52.8,24.1-62C990,744.8,984.3,649.8,981.2,596.7z M588.4,121.6h7.7v81.1h-7.7V121.6z M483.5,121.6l31.1,79.2l27.8-39.9l-27.5-39.3h9.1l22.9,34l23.7-34h8.7l-27.7,39.5l29.3,41.6h-9.3l-24.7-35.8l-25,35.8h-6.6h-2.1H507l-9.9-25.2h-36.9l-9.8,25.2h-8.2l32.6-81.1H483.5z M387.1,121.6h64.2v6.6H423v74.5h-7.7v-74.5h-28.2L387.1,121.6L387.1,121.6z M229.7,686.4c-7.4,18.7-22.2,33.8-41,41.9c-9.6,4.1-20.1,6.5-31.1,6.5c-12.6,0-24.2-3.2-34.7-8.4c-25.2-12.5-42.7-37.7-42.7-67.1c0-41.6,34.8-75.5,77.5-75.5c24.6,0,46.3,11.4,60.5,28.8c10.5,12.9,17.1,28.9,17.1,46.6C235.1,668.9,233.1,678,229.7,686.4z M330.2,668.4c0,8.5-6.8,15.3-15.3,15.3c-8.5,0-15.3-6.8-15.3-15.3v-30.6c0-8.5,6.8-15.3,15.3-15.3c8.5,0,15.3,6.8,15.3,15.3V668.4z M157.4,484.7c7.6,0,12.5-28.8,16-45.1c1.9-9.2,14.2-53.3,36.4-135.6l2.2-7.1c3.1-11.6,10.4-27.1,27-40.6c17.7-14.4,51.4-16.6,62.7-16.6h396.6c10.6,0,45,2.1,62.8,16.6c16.6,13.5,23.8,28.9,27,40.6l0.7,1.4c30.3,112,36.8,135.8,38,141.3c3.5,16.3,8.3,45.1,15.9,45.1H157.4z M391.5,699.1c0,8.5-6.8,15.3-15.3,15.3c-8.5,0-15.3-6.8-15.3-15.3v-91.9c0-8.5,6.8-15.3,15.3-15.3c8.5,0,15.3,6.8,15.3,15.3V699.1z M452.7,729.7c0,8.5-6.9,15.3-15.3,15.3c-8.5,0-15.3-6.8-15.3-15.3V576.6c0-8.5,6.8-15.3,15.3-15.3c8.5,0,15.3,6.9,15.3,15.3V729.7z M514,729.7c0,8.5-6.8,15.3-15.3,15.3c-8.5,0-15.3-6.8-15.3-15.3V576.6c0-8.5,6.8-15.3,15.3-15.3c8.5,0,15.3,6.9,15.3,15.3V729.7z M575.2,729.7c0,8.5-6.8,15.3-15.3,15.3c-8.5,0-15.3-6.8-15.3-15.3V576.6c0-8.5,6.8-15.3,15.3-15.3s15.3,6.9,15.3,15.3V729.7z M636.5,699.1c0,8.5-6.9,15.3-15.3,15.3s-15.3-6.8-15.3-15.3v-91.9c0-8.5,6.8-15.3,15.3-15.3s15.3,6.8,15.3,15.3V699.1z M697.7,668.4c0,8.5-6.8,15.3-15.3,15.3s-15.3-6.8-15.3-15.3v-30.6c0-8.5,6.8-15.3,15.3-15.3s15.3,6.8,15.3,15.3V668.4z M831.3,734.8c-42.7,0-77.5-33.9-77.5-75.5c0-41.6,34.8-75.5,77.5-75.5c42.7,0,77.5,33.9,77.5,75.5C908.8,700.9,874.1,734.8,831.3,734.8z"/><path d="M831.3,614.5c-25.8,0-46.9,20.1-46.9,44.8c0,24.7,21,44.8,46.9,44.8c25.9,0,46.9-20.1,46.9-44.8C878.2,634.6,857.2,614.5,831.3,614.5z"/><path d="M184.8,622.9c-7.7-5.3-17-8.4-27.2-8.4c-25.8,0-46.9,20.1-46.9,44.8c0,13.2,6.1,25,15.7,33.2c8.3,7.1,19.2,11.6,31.2,11.6c25.9,0,46.9-20.1,46.9-44.8C204.5,644.3,196.6,631.1,184.8,622.9z"/><path d="M305.4,285.4c-31.9,3.5-50.6,35.5-57,61.8c-11.4,47.1-16.5,79-16.7,80.3c-1.8,11.6,6.1,22.5,17.8,24.3c1.1,0.2,2.2,0.2,3.3,0.2c10.3,0,19.4-7.5,21-18c0-0.3,5-31.5,16-76.9c3.8-15.5,12.9-28.7,20.3-29.5c11.7-1.3,20.1-11.8,18.8-23.5C327.6,292.5,317.2,284.1,305.4,285.4z"/></g>
</svg>